<?xml version="1.0" standalone="no"?>
<!DOCTYPE svg PUBLIC "-//W3C//DTD SVG 20010904//EN"
 "http://www.w3.org/TR/2001/REC-SVG-20010904/DTD/svg10.dtd">
<svg version="1.0" xmlns="http://www.w3.org/2000/svg"
 width="300.000000pt" height="300.000000pt" viewBox="0 0 300.000000 300.000000"
 preserveAspectRatio="xMidYMid meet">
<metadata>
Created by potrace 1.11, written by Peter Selinger 2001-2013
</metadata>
<g transform="translate(0.000000,300.000000) scale(0.100000,-0.100000)"
fill="#000000" stroke="none">
<path d="M1503 2993 c-7 -2 -13 -11 -13 -19 0 -9 -4 -13 -9 -9 -5 3 -12 -4
-16 -15 -4 -11 -11 -18 -16 -15 -5 4 -9 -1 -9 -10 0 -9 -4 -14 -9 -10 -5 3
-12 -4 -16 -15 -4 -11 -10 -18 -15 -15 -5 3 -11 -4 -15 -15 -4 -11 -9 -19 -13
-17 -4 1 -21 -12 -39 -30 -17 -18 -29 -33 -27 -33 2 0 -4 -8 -13 -18 -10 -11
-21 -17 -25 -15 -4 2 -9 -6 -13 -17 -4 -11 -10 -18 -15 -15 -5 3 -11 -4 -15
-15 -4 -11 -9 -19 -13 -17 -4 1 -21 -12 -39 -30 -17 -18 -29 -33 -25 -33 3 0
-9 -11 -28 -25 -19 -14 -31 -25 -27 -25 4 0 2 -6 -5 -14 -7 -8 -16 -12 -20 -9
-5 2 -8 -1 -8 -6 0 -6 -11 -21 -25 -33 -13 -11 -22 -25 -19 -29 3 -5 -2 -6
-10 -3 -9 3 -17 -2 -21 -15 -3 -12 -10 -19 -15 -16 -5 3 -11 -4 -15 -15 -4
-11 -10 -18 -15 -15 -5 3 -11 -4 -15 -15 -4 -11 -10 -18 -14 -15 -5 2 -13 -7
-20 -21 -6 -14 -16 -22 -21 -19 -6 3 -10 2 -10 -3 0 -13 -36 -53 -43 -46 -3 3
-8 -4 -12 -15 -3 -12 -10 -19 -15 -16 -5 3 -11 -4 -15 -15 -4 -11 -10 -18 -15
-15 -5 3 -11 -4 -15 -15 -4 -11 -11 -18 -16 -15 -5 4 -9 -1 -9 -10 0 -9 -3
-14 -7 -12 -8 3 -53 -38 -49 -45 1 -2 -11 -15 -26 -30 -15 -15 -28 -24 -28
-21 0 3 -15 -13 -34 -36 -18 -22 -36 -38 -39 -35 -3 3 -8 -4 -12 -15 -3 -12
-10 -19 -15 -16 -5 3 -11 -4 -15 -15 -3 -11 -13 -20 -21 -20 -8 0 -13 -4 -10
-9 3 -5 -2 -15 -11 -22 -14 -12 -16 -12 -9 1 5 8 -5 -1 -22 -20 -17 -19 -31
-39 -32 -43 0 -5 -4 -6 -9 -2 -5 3 -12 -3 -15 -12 -4 -10 -22 -29 -40 -43 -19
-14 -32 -28 -29 -32 2 -5 -3 -8 -11 -8 -9 0 -16 -7 -16 -15 0 -8 -7 -15 -16
-15 -8 0 -13 -4 -10 -8 3 -5 -4 -16 -15 -25 -10 -9 -19 -14 -19 -12 0 3 -6 0
-14 -7 -8 -7 -12 -16 -10 -20 2 -3 -11 -15 -29 -27 -17 -11 -28 -21 -24 -21 4
0 2 -6 -5 -14 -7 -8 -16 -12 -20 -9 -5 2 -8 0 -8 -5 0 -11 -60 -75 -60 -64 0
4 -6 -4 -13 -18 -11 -21 -11 -27 2 -37 9 -6 19 -9 24 -6 4 2 7 1 6 -4 -4 -21
2 -33 15 -33 8 0 18 -9 21 -20 3 -11 13 -20 21 -20 8 0 12 -4 9 -10 -3 -5 -1
-10 5 -10 15 0 40 -25 40 -40 0 -6 4 -9 10 -5 5 3 17 -6 26 -20 9 -14 24 -25
33 -25 9 0 12 -3 6 -8 -6 -4 -2 -15 12 -29 13 -12 23 -20 23 -17 0 3 6 -1 14
-8 8 -7 12 -16 9 -20 -2 -5 3 -8 11 -8 8 0 18 -9 21 -20 3 -11 13 -20 21 -20
8 0 12 -4 9 -10 -3 -5 0 -10 7 -10 7 0 22 -14 33 -30 11 -16 26 -30 33 -30 6
0 12 -7 12 -16 0 -8 3 -14 7 -12 5 2 28 -16 53 -41 25 -25 39 -41 31 -36 -10
5 -12 4 -7 -3 4 -7 13 -12 21 -12 7 0 17 -9 20 -20 3 -11 12 -20 18 -21 7 0
28 -20 47 -43 19 -24 38 -41 43 -39 4 2 7 -3 7 -12 0 -9 5 -13 10 -10 5 3 10
-1 10 -9 0 -8 8 -17 18 -21 9 -3 28 -21 42 -40 14 -19 33 -37 43 -40 9 -4 17
-9 17 -13 1 -4 12 -20 26 -37 15 -16 23 -24 19 -16 -6 9 -4 12 3 7 7 -4 12
-14 12 -22 0 -8 5 -12 10 -9 6 3 10 -2 10 -11 0 -10 3 -15 6 -11 8 7 34 -17
34 -32 0 -5 9 -13 20 -16 11 -3 20 -12 20 -20 0 -7 9 -15 20 -18 11 -3 20 -13
20 -22 0 -9 4 -14 9 -10 5 3 12 -4 16 -15 3 -11 13 -20 21 -20 8 0 14 -7 14
-17 0 -9 2 -14 5 -11 7 6 85 -71 85 -84 0 -4 6 -8 13 -8 8 0 20 -11 27 -25 7
-14 16 -25 20 -25 3 0 15 -7 26 -16 10 -8 12 -12 4 -8 -8 4 -1 -6 15 -22 17
-16 33 -28 38 -26 4 2 7 -4 7 -13 0 -9 4 -13 10 -10 5 3 10 -1 10 -9 0 -8 8
-17 18 -21 9 -3 28 -21 42 -39 14 -19 28 -32 33 -29 4 2 7 0 7 -6 0 -16 53
-61 71 -61 9 0 35 20 58 45 22 24 41 42 41 38 0 -4 11 8 25 27 14 19 25 30 25
26 0 -5 10 4 22 20 31 40 48 57 48 48 0 -4 10 6 23 22 26 35 87 96 87 87 0 -3
13 10 29 30 15 20 31 34 35 30 3 -3 6 -2 6 4 0 5 11 22 25 37 14 15 25 24 25
21 0 -4 11 7 25 24 47 55 228 231 238 231 6 0 8 3 4 6 -7 7 3 18 47 52 16 12
25 22 21 22 -4 0 9 14 30 30 21 17 35 30 32 30 -8 0 51 59 88 88 15 12 25 22
22 22 -3 0 114 119 259 264 298 297 295 292 225 358 -22 20 -37 39 -33 42 3 3
-2 6 -12 6 -9 0 -15 4 -12 8 3 5 -6 15 -19 22 -13 7 -22 17 -20 21 3 4 -4 10
-15 14 -11 3 -20 13 -20 21 0 8 -4 14 -9 14 -12 0 -71 59 -71 70 0 5 -9 12
-20 15 -11 3 -20 13 -20 21 0 8 -6 14 -14 14 -8 0 -18 9 -21 20 -4 11 -9 18
-13 16 -4 -2 -18 11 -32 30 -14 18 -32 36 -41 39 -9 3 -22 16 -29 30 -7 13
-17 22 -22 19 -4 -3 -8 2 -8 10 0 9 -6 16 -12 16 -7 0 -22 14 -33 30 -11 16
-23 30 -26 30 -8 0 -89 80 -89 89 0 3 -16 17 -35 31 -19 14 -37 32 -40 40 -3
8 -18 24 -35 35 -16 11 -30 26 -30 33 0 6 -6 12 -14 12 -8 0 -18 9 -21 20 -4
11 -9 18 -13 16 -4 -2 -18 11 -32 30 -14 18 -32 36 -41 39 -9 3 -22 16 -29 30
-7 13 -17 22 -22 19 -4 -3 -8 2 -8 10 0 9 -4 16 -9 16 -11 0 -91 79 -91 91 0
4 -8 10 -18 13 -11 4 -25 16 -32 29 -7 12 -43 49 -80 82 -38 33 -68 62 -69 66
-1 7 -111 120 -111 114 0 -3 -17 14 -37 37 -41 46 -75 78 -83 77 -3 0 -11 -3
-17 -6z"/>
</g>
</svg>
